<?xml version="1.0" standalone="no"?><!DOCTYPE svg PUBLIC "-//W3C//DTD SVG 1.1//EN" "http://www.w3.org/Graphics/SVG/1.1/DTD/svg11.dtd"><svg t="1756112006584" class="icon" viewBox="0 0 1024 1024" version="1.1" xmlns="http://www.w3.org/2000/svg" p-id="15458" xmlns:xlink="http://www.w3.org/1999/xlink" width="512" height="512"><path d="M896 426.666667a42.666667 42.666667 0 0 0 42.666667-42.666667V256a42.666667 42.666667 0 0 0-29.184-40.448l-384-128a42.752 42.752 0 0 0-26.965334 0l-384 128A42.666667 42.666667 0 0 0 85.333333 256v128a42.666667 42.666667 0 0 0 42.666667 42.666667h42.666667v306.517333A127.786667 127.786667 0 0 0 85.333333 853.333333v85.333334a42.666667 42.666667 0 0 0 42.666667 42.666666h768a42.666667 42.666667 0 0 0 42.666667-42.666666v-85.333334a127.786667 127.786667 0 0 0-85.333334-120.149333V426.666667h42.666667z m-42.666667 469.333333H170.666667v-42.666667c0-23.552 19.114667-42.666667 42.666666-42.666666h597.333334c23.552 0 42.666667 19.114667 42.666666 42.666666v42.666667zM256 725.333333v-298.666666h85.333333v298.666666H256z m170.666667 0v-298.666666h170.666666v298.666666h-170.666666z m256 0v-298.666666h85.333333v298.666666h-85.333333zM170.666667 341.333333V286.72l341.333333-113.749333 341.333333 113.792V341.333333H170.666667z" fill="#016620" p-id="15459"></path></svg>